{"title":"Hollow Creek 2016 Movies HDRip XviD ESubs AAC New +Sample ☻rDX☻","uid":13707307,"size":739237885,"categoryP":"video","categoryS":"movies","magnet":"?xt=urn:btih:18f568907080490d467e3382fcc14cc89db3aba2&amp;dn=Hollow+Creek+2016+Movies+HDRip+XviD+ESubs+AAC+New+%2BSample+%E2%98%BBrDX%E2%98%BB&amp;tr=udp%3A%2F%2Ftracker.leechers-paradise.org%3A6969&amp;tr=udp%3A%2F%2Fzer0day.ch%3A1337&amp;tr=udp%3A%2F%2Fopen.demonii.com%3A1337&amp;tr=udp%3A%2F%2Ftracker.coppersurfer.tk%3A6969&amp;tr=udp%3A%2F%2Fexodus.desync.com%3A6969","seeders":0,"leechers":1,"uploader":"basicssom","files":3,"time":1456839232,"description":"----------------------------------------------------------------\r\nHollow Creek 2016 English Movies HDRip XviD ESubs AAC New Source with Sample ~ ☻rDX☻\r\n\r\nSCREEN SHOTS &amp; POSTER:\r\n  \nhttp://mobileshosting.com/2016/3/wallet/index.htm  \nhttp://mobileshosting.com/2016/3/wallet/1.html  \nhttp://mobileshosting.com/2016/3/wallet/2.html  \nhttp://mobileshosting.com/2016/3/wallet/3.html  \nhttp://mobileshosting.com/2016/3/wallet/4.html  \nhttp://mobileshosting.com/2016/3/wallet/5.html  \nhttp://mobileshosting.com/2016/3/wallet/6.html  \nhttp://mobileshosting.com/2016/3/wallet/7.html  \nhttp://mobileshosting.com/2016/3/wallet/8.html  \nhttp://mobileshosting.com/2016/3/wallet/9.html  \nhttp://mobileshosting.com/2016/3/wallet/10.html\r\n\r\nFormat                                   : Matroska\r\nFormat version                           : Version 4 / Version 2\r\nFile size                                : 693 MiB\r\nDuration                                 : 1h 56mn\r\nOverall bit rate                         : 832 Kbps\r\nMovie name                               : Hollow Creek 2016 English Movies HDRip XviD ESubs AAC New Source ☻rDX☻\r\n\r\nVideo\r\nID                                       : 1\r\nFormat                                   : MPEG-4 Visual\r\nFormat profile                           : Advanced   \r\nFormat settings, BVOP                    : Yes\r\nFormat settings, QPel                    : No\r\nFormat settings, GMC                     : No warppoints\r\nFormat settings, Matrix                  : Default (H.263)\r\nCodec ID                                 : V_MS/VFW/FOURCC / XVID\r\nCodec ID/Hint                            : XviD\r\nDuration                                 : 1h 56mn\r\nBit rate                                 : 703 Kbps\r\nWidth                                    : 640 pixels\r\nHeight                                   : 352 pixels\r\nDisplay aspect ratio                     : 16:9\r\nFrame rate mode                          : Constant\r\nFrame rate                               : 23.976 fps\r\nColor space                              : YUV\r\nChroma subsampling                       : 4:2:0\r\nBit depth                                : 8 bits\r\nScan type                                : Progressive\r\nCompression mode                         : Lossy\r\nBits/(Pixel*Frame)                       : 0.130\r\nStream size                              : 586 MiB (85%)\r\nTitle                                    : ☻rDX☻\r\nWriting library                          : XviD 67\r\nDefault                                  : Yes\r\nForced                                   : No\r\n\r\nAudio\r\nID                                       : 2\r\nFormat                                   : MPEG Audio\r\nFormat version                           : Version 1\r\nFormat profile                           : Layer 3\r\nMode                                     : Joint stereo\r\nMode extension                           : MS Stereo\r\nCodec ID                                 : A_MPEG/L3\r\nCodec ID/Hint                            : MP3\r\nDuration                                 : 1h 56mn\r\nBit rate mode                            : Constant\r\nBit rate                                 : 112 Kbps\r\nChannel(s)                               : 2 channels\r\nSampling rate                            : 48.0 KHz\r\nCompression mode                         : Lossy\r\nStream size                              : 93.3 MiB (13%)\r\nTitle                                    : ☻rDX☻\r\nWriting library                          : LAME3.99r\r\nEncoding settings                        : -m j -V 4 -q 3 -lowpass 15.6 -b 112\r\nDefault                                  : Yes\r\nForced                                   : No\r\n\r\nIMDB                                      \nhttp://www.imdb.com/title/tt2545538/","torrent":{"xt":"urn:btih:18f568907080490d467e3382fcc14cc89db3aba2","amp;dn":"Hollow+Creek+2016+Movies+HDRip+XviD+ESubs+AAC+New+%2BSample+%E2%98%BBrDX%E2%98%BB","amp;tr":["udp%3A%2F%2Ftracker.leechers-paradise.org%3A6969","udp%3A%2F%2Fzer0day.ch%3A1337","udp%3A%2F%2Fopen.demonii.com%3A1337","udp%3A%2F%2Ftracker.coppersurfer.tk%3A6969","udp%3A%2F%2Fexodus.desync.com%3A6969"],"infoHash":"18f568907080490d467e3382fcc14cc89db3aba2","infoHashBuffer":{"type":"Buffer","data":[24,245,104,144,112,128,73,13,70,126,51,130,252,193,76,200,157,179,171,162]},"announce":[],"urlList":[]}}